<svg width="212" height="27" viewBox="0 0 212 27" fill="none" xmlns="http://www.w3.org/2000/svg">
<path d="M20.068 3.152V20H15.964V9.896L12.196 20H8.884L5.092 9.872V20H0.988V3.152H5.836L10.564 14.816L15.244 3.152H20.068ZM22.2033 13.28C22.2033 11.904 22.4593 10.696 22.9713 9.656C23.4993 8.616 24.2113 7.816 25.1073 7.256C26.0033 6.696 27.0033 6.416 28.1073 6.416C29.0513 6.416 29.8753 6.608 30.5793 6.992C31.2993 7.376 31.8513 7.88 32.2353 8.504V6.608H36.3393V20H32.2353V18.104C31.8353 18.728 31.2753 19.232 30.5553 19.616C29.8513 20 29.0273 20.192 28.0833 20.192C26.9953 20.192 26.0033 19.912 25.1073 19.352C24.2113 18.776 23.4993 17.968 22.9713 16.928C22.4593 15.872 22.2033 14.656 22.2033 13.28ZM32.2353 13.304C32.2353 12.28 31.9473 11.472 31.3713 10.88C30.8113 10.288 30.1233 9.992 29.3073 9.992C28.4913 9.992 27.7953 10.288 27.2193 10.88C26.6593 11.456 26.3793 12.256 26.3793 13.28C26.3793 14.304 26.6593 15.12 27.2193 15.728C27.7953 16.32 28.4913 16.616 29.3073 16.616C30.1233 16.616 30.8113 16.32 31.3713 15.728C31.9473 15.136 32.2353 14.328 32.2353 13.304ZM43.4123 8.84C43.8923 8.104 44.4923 7.528 45.2123 7.112C45.9323 6.68 46.7323 6.464 47.6123 6.464V10.808H46.4843C45.4603 10.808 44.6923 11.032 44.1803 11.48C43.6683 11.912 43.4123 12.68 43.4123 13.784V20H39.3083V6.608H43.4123V8.84ZM57.7579 20L53.6779 14.384V20H49.5739V2.24H53.6779V12.056L57.7339 6.608H62.7979L57.2299 13.328L62.8459 20H57.7579ZM77.0339 13.088C77.0339 13.472 77.0099 13.872 76.9619 14.288H67.6739C67.7379 15.12 68.0019 15.76 68.4659 16.208C68.9459 16.64 69.5299 16.856 70.2179 16.856C71.2419 16.856 71.9539 16.424 72.3539 15.56H76.7219C76.4979 16.44 76.0899 17.232 75.4979 17.936C74.9219 18.64 74.1939 19.192 73.3139 19.592C72.4339 19.992 71.4499 20.192 70.3619 20.192C69.0499 20.192 67.8819 19.912 66.8579 19.352C65.8339 18.792 65.0339 17.992 64.4579 16.952C63.8819 15.912 63.5939 14.696 63.5939 13.304C63.5939 11.912 63.8739 10.696 64.4339 9.656C65.0099 8.616 65.8099 7.816 66.8339 7.256C67.8579 6.696 69.0339 6.416 70.3619 6.416C71.6579 6.416 72.8099 6.688 73.8179 7.232C74.8259 7.776 75.6099 8.552 76.1699 9.56C76.7459 10.568 77.0339 11.744 77.0339 13.088ZM72.8339 12.008C72.8339 11.304 72.5939 10.744 72.1139 10.328C71.6339 9.912 71.0339 9.704 70.3139 9.704C69.6259 9.704 69.0419 9.904 68.5619 10.304C68.0979 10.704 67.8099 11.272 67.6979 12.008H72.8339ZM86.6629 16.52V20H84.5749C83.0869 20 81.9269 19.64 81.0949 18.92C80.2629 18.184 79.8469 16.992 79.8469 15.344V10.016H78.2149V6.608H79.8469V3.344H83.9509V6.608H86.6389V10.016H83.9509V15.392C83.9509 15.792 84.0469 16.08 84.2389 16.256C84.4309 16.432 84.7509 16.52 85.1989 16.52H86.6629ZM91.0129 5.216C90.2929 5.216 89.7009 5.008 89.2369 4.592C88.7889 4.16 88.5649 3.632 88.5649 3.008C88.5649 2.368 88.7889 1.84 89.2369 1.424C89.7009 0.991999 90.2929 0.775999 91.0129 0.775999C91.7169 0.775999 92.2929 0.991999 92.7409 1.424C93.2049 1.84 93.4369 2.368 93.4369 3.008C93.4369 3.632 93.2049 4.16 92.7409 4.592C92.2929 5.008 91.7169 5.216 91.0129 5.216ZM93.0529 6.608V20H88.9489V6.608H93.0529ZM104.187 6.464C105.755 6.464 107.003 6.976 107.931 8C108.875 9.008 109.347 10.4 109.347 12.176V20H105.267V12.728C105.267 11.832 105.035 11.136 104.571 10.64C104.107 10.144 103.483 9.896 102.699 9.896C101.915 9.896 101.291 10.144 100.827 10.64C100.363 11.136 100.131 11.832 100.131 12.728V20H96.0271V6.608H100.131V8.384C100.547 7.792 101.107 7.328 101.811 6.992C102.515 6.64 103.307 6.464 104.187 6.464ZM117.287 6.416C118.231 6.416 119.055 6.608 119.759 6.992C120.479 7.376 121.031 7.88 121.415 8.504V6.608H125.519V19.976C125.519 21.208 125.271 22.32 124.775 23.312C124.295 24.32 123.551 25.12 122.543 25.712C121.551 26.304 120.311 26.6 118.823 26.6C116.839 26.6 115.231 26.128 113.999 25.184C112.767 24.256 112.063 22.992 111.887 21.392H115.943C116.071 21.904 116.375 22.304 116.855 22.592C117.335 22.896 117.927 23.048 118.631 23.048C119.479 23.048 120.151 22.8 120.647 22.304C121.159 21.824 121.415 21.048 121.415 19.976V18.08C121.015 18.704 120.463 19.216 119.759 19.616C119.055 20 118.231 20.192 117.287 20.192C116.183 20.192 115.183 19.912 114.287 19.352C113.391 18.776 112.679 17.968 112.151 16.928C111.639 15.872 111.383 14.656 111.383 13.28C111.383 11.904 111.639 10.696 112.151 9.656C112.679 8.616 113.391 7.816 114.287 7.256C115.183 6.696 116.183 6.416 117.287 6.416ZM121.415 13.304C121.415 12.28 121.127 11.472 120.551 10.88C119.991 10.288 119.303 9.992 118.487 9.992C117.671 9.992 116.975 10.288 116.399 10.88C115.839 11.456 115.559 12.256 115.559 13.28C115.559 14.304 115.839 15.12 116.399 15.728C116.975 16.32 117.671 16.616 118.487 16.616C119.303 16.616 119.991 16.32 120.551 15.728C121.127 15.136 121.415 14.328 121.415 13.304ZM139.886 3.152C141.662 3.152 143.214 3.504 144.542 4.208C145.87 4.912 146.894 5.904 147.614 7.184C148.35 8.448 148.718 9.912 148.718 11.576C148.718 13.224 148.35 14.688 147.614 15.968C146.894 17.248 145.862 18.24 144.518 18.944C143.19 19.648 141.646 20 139.886 20H133.574V3.152H139.886ZM139.622 16.448C141.174 16.448 142.382 16.024 143.246 15.176C144.11 14.328 144.542 13.128 144.542 11.576C144.542 10.024 144.11 8.816 143.246 7.952C142.382 7.088 141.174 6.656 139.622 6.656H137.678V16.448H139.622ZM153.075 5.216C152.355 5.216 151.763 5.008 151.299 4.592C150.851 4.16 150.627 3.632 150.627 3.008C150.627 2.368 150.851 1.84 151.299 1.424C151.763 0.991999 152.355 0.775999 153.075 0.775999C153.779 0.775999 154.355 0.991999 154.803 1.424C155.267 1.84 155.499 2.368 155.499 3.008C155.499 3.632 155.267 4.16 154.803 4.592C154.355 5.008 153.779 5.216 153.075 5.216ZM155.115 6.608V20H151.011V6.608H155.115ZM163.178 6.416C164.122 6.416 164.946 6.608 165.65 6.992C166.37 7.376 166.922 7.88 167.306 8.504V6.608H171.41V19.976C171.41 21.208 171.162 22.32 170.666 23.312C170.186 24.32 169.442 25.12 168.434 25.712C167.442 26.304 166.202 26.6 164.714 26.6C162.73 26.6 161.122 26.128 159.89 25.184C158.658 24.256 157.954 22.992 157.778 21.392H161.834C161.962 21.904 162.266 22.304 162.746 22.592C163.226 22.896 163.818 23.048 164.522 23.048C165.37 23.048 166.042 22.8 166.538 22.304C167.05 21.824 167.306 21.048 167.306 19.976V18.08C166.906 18.704 166.354 19.216 165.65 19.616C164.946 20 164.122 20.192 163.178 20.192C162.074 20.192 161.074 19.912 160.178 19.352C159.282 18.776 158.57 17.968 158.042 16.928C157.53 15.872 157.274 14.656 157.274 13.28C157.274 11.904 157.53 10.696 158.042 9.656C158.57 8.616 159.282 7.816 160.178 7.256C161.074 6.696 162.074 6.416 163.178 6.416ZM167.306 13.304C167.306 12.28 167.018 11.472 166.442 10.88C165.882 10.288 165.194 9.992 164.378 9.992C163.562 9.992 162.866 10.288 162.29 10.88C161.73 11.456 161.45 12.256 161.45 13.28C161.45 14.304 161.73 15.12 162.29 15.728C162.866 16.32 163.562 16.616 164.378 16.616C165.194 16.616 165.882 16.32 166.442 15.728C167.018 15.136 167.306 14.328 167.306 13.304ZM176.443 5.216C175.723 5.216 175.131 5.008 174.667 4.592C174.219 4.16 173.995 3.632 173.995 3.008C173.995 2.368 174.219 1.84 174.667 1.424C175.131 0.991999 175.723 0.775999 176.443 0.775999C177.147 0.775999 177.723 0.991999 178.171 1.424C178.635 1.84 178.867 2.368 178.867 3.008C178.867 3.632 178.635 4.16 178.171 4.592C177.723 5.008 177.147 5.216 176.443 5.216ZM178.483 6.608V20H174.379V6.608H178.483ZM188.921 16.52V20H186.833C185.345 20 184.185 19.64 183.353 18.92C182.521 18.184 182.105 16.992 182.105 15.344V10.016H180.473V6.608H182.105V3.344H186.209V6.608H188.897V10.016H186.209V15.392C186.209 15.792 186.305 16.08 186.497 16.256C186.689 16.432 187.009 16.52 187.457 16.52H188.921ZM190.391 13.28C190.391 11.904 190.647 10.696 191.159 9.656C191.687 8.616 192.399 7.816 193.295 7.256C194.191 6.696 195.191 6.416 196.295 6.416C197.239 6.416 198.063 6.608 198.767 6.992C199.487 7.376 200.039 7.88 200.423 8.504V6.608H204.527V20H200.423V18.104C200.023 18.728 199.463 19.232 198.743 19.616C198.039 20 197.215 20.192 196.271 20.192C195.183 20.192 194.191 19.912 193.295 19.352C192.399 18.776 191.687 17.968 191.159 16.928C190.647 15.872 190.391 14.656 190.391 13.28ZM200.423 13.304C200.423 12.28 200.135 11.472 199.559 10.88C198.999 10.288 198.311 9.992 197.495 9.992C196.679 9.992 195.983 10.288 195.407 10.88C194.847 11.456 194.567 12.256 194.567 13.28C194.567 14.304 194.847 15.12 195.407 15.728C195.983 16.32 196.679 16.616 197.495 16.616C198.311 16.616 198.999 16.32 199.559 15.728C200.135 15.136 200.423 14.328 200.423 13.304ZM211.6 2.24V20H207.496V2.24H211.6Z" fill="white"/>
</svg>
